<?xml version="1.0" encoding="UTF-8"?>
<svg id="Layer_2" data-name="Layer 2" xmlns="http://www.w3.org/2000/svg" viewBox="0 0 545.31 254.27">
  <defs>
    <style>
      .cls-1 {
        fill: #ffce64;
      }

      .cls-2 {
        fill: #4866fa;
      }

      .cls-3 {
        fill: #282832;
      }

      .cls-4 {
        fill: #282832;
      }
    </style>
  </defs>
  <g id="Layer_1-2" data-name="Layer 1">
    <g>
      <g>
        <path class="cls-3" d="M288.33,67.79h-25.42v73.72h-20.96v-73.72h-25.42v-16.62h71.79v16.62Z"/>
        <path class="cls-3" d="M369.12,141.51h-18.97c-3.51,0-6.04-1.32-7.56-3.97l-15-26.23c-.7-1.12-1.49-1.93-2.36-2.45-.87-.52-2.11-.77-3.72-.77h-5.33v33.42h-20.96V51.18h29.39c6.53,0,12.1.67,16.71,2.02,4.61,1.34,8.37,3.21,11.28,5.61,2.91,2.4,5.03,5.23,6.36,8.49,1.32,3.27,1.98,6.82,1.98,10.66,0,2.94-.39,5.7-1.18,8.31s-1.94,5.01-3.47,7.22c-1.53,2.21-3.42,4.19-5.67,5.92-2.25,1.74-4.85,3.16-7.78,4.28,1.36.7,2.64,1.58,3.84,2.63,1.2,1.05,2.27,2.3,3.22,3.75l19.22,31.43ZM324.6,93.65c2.85,0,5.28-.36,7.28-1.09,2-.72,3.65-1.73,4.93-3.01,1.28-1.28,2.21-2.78,2.79-4.5.58-1.71.87-3.56.87-5.55,0-3.97-1.29-7.07-3.87-9.3-2.58-2.23-6.58-3.35-12-3.35h-8.43v26.78h8.43Z"/>
        <path class="cls-3" d="M394.1,67.3v21.08h28.4v15.5h-28.4v21.51h37.08v16.12h-58.16V51.18h58.16v16.12h-37.08Z"/>
        <path class="cls-3" d="M500.86,141.51h-18.48c-1.36,0-2.47-.33-3.32-.99-.85-.66-1.52-1.45-2.02-2.36l-11.47-19.72c-.21.7-.46,1.36-.74,1.98s-.6,1.2-.93,1.74l-9.42,16c-.58.83-1.26,1.59-2.05,2.29-.79.7-1.8,1.05-3.04,1.05h-17.11l21.58-33.23-20.71-31.06h18.48c1.36,0,2.37.18,3.01.53.64.35,1.21.94,1.71,1.77l11.47,19.03c.25-.74.56-1.48.93-2.2.37-.72.79-1.46,1.24-2.2l8.18-14.32c.58-.91,1.19-1.57,1.83-1.98.64-.41,1.44-.62,2.39-.62h17.61l-20.71,30.19,21.58,34.1Z"/>
        <path class="cls-3" d="M527.33,142.5c-3.06,0-5.76-.44-8.09-1.33-2.34-.89-4.3-2.15-5.89-3.78-1.59-1.63-2.8-3.61-3.63-5.92-.83-2.31-1.24-4.9-1.24-7.75v-33.23h-5.46c-.99,0-1.84-.32-2.54-.96-.7-.64-1.05-1.58-1.05-2.82v-7.5l10.23-1.98,3.78-15.69c.5-1.98,1.9-2.98,4.22-2.98h10.04v18.79h15.93v13.14h-15.93v31.93c0,1.49.36,2.72,1.08,3.69.72.97,1.77,1.46,3.13,1.46.7,0,1.29-.07,1.77-.22.48-.14.89-.31,1.24-.5.35-.19.68-.35.99-.5.31-.14.67-.22,1.08-.22.58,0,1.04.13,1.39.4.35.27.71.69,1.09,1.27l5.83,9.11c-2.48,1.86-5.27,3.25-8.37,4.19-3.1.93-6.3,1.4-9.61,1.4Z"/>
      </g>
      <g>
        <path class="cls-2" d="M270.42,164.07h-10.3v29.88h-8.5v-29.88h-10.3v-6.74h29.1v6.74Z"/>
        <path class="cls-2" d="M274.19,182.32c.25,2.18.91,3.76,1.99,4.74,1.07.98,2.45,1.47,4.15,1.47.91,0,1.68-.11,2.34-.33.65-.22,1.24-.46,1.75-.73.51-.27.98-.51,1.41-.73s.87-.33,1.34-.33c.62,0,1.09.23,1.41.68l2.26,2.79c-.8.92-1.67,1.67-2.6,2.25-.93.58-1.89,1.03-2.86,1.36-.98.33-1.96.55-2.94.68-.98.13-1.91.19-2.8.19-1.83,0-3.54-.3-5.14-.89-1.6-.59-3-1.48-4.2-2.65-1.2-1.17-2.15-2.63-2.84-4.37-.7-1.74-1.04-3.77-1.04-6.08,0-1.74.3-3.39.89-4.95.59-1.56,1.45-2.92,2.56-4.1s2.46-2.1,4.05-2.79c1.58-.69,3.37-1.03,5.37-1.03,1.73,0,3.3.27,4.74.8,1.43.54,2.66,1.32,3.69,2.34,1.03,1.02,1.83,2.27,2.41,3.76.58,1.48.87,3.16.87,5.04,0,.59-.03,1.06-.08,1.43s-.14.66-.28.88c-.13.22-.31.37-.54.45-.23.08-.52.13-.87.13h-15.03ZM283.99,177.8c0-.62-.08-1.22-.24-1.81-.16-.59-.42-1.11-.78-1.57-.36-.46-.83-.83-1.42-1.12-.59-.28-1.3-.43-2.14-.43-1.47,0-2.63.42-3.47,1.27-.84.85-1.39,2.07-1.66,3.66h9.7Z"/>
        <path class="cls-2" d="M318.3,193.96h-7.49c-.55,0-1-.13-1.34-.4-.34-.27-.62-.59-.82-.96l-4.65-7.99c-.08.28-.18.55-.3.8-.12.25-.24.49-.38.7l-3.82,6.48c-.23.34-.51.65-.83.93-.32.28-.73.43-1.23.43h-6.94l8.75-13.47-8.39-12.59h7.49c.55,0,.96.07,1.22.21.26.14.49.38.69.72l4.65,7.72c.1-.3.23-.6.38-.89.15-.29.32-.59.5-.89l3.32-5.81c.23-.37.48-.64.74-.8.26-.17.58-.25.97-.25h7.14l-8.4,12.24,8.75,13.82Z"/>
        <path class="cls-2" d="M328.53,194.36c-1.24,0-2.33-.18-3.28-.54-.95-.36-1.74-.87-2.39-1.53-.65-.66-1.14-1.46-1.47-2.4s-.5-1.99-.5-3.14v-13.47h-2.21c-.4,0-.75-.13-1.03-.39-.29-.26-.43-.64-.43-1.14v-3.04l4.15-.8,1.53-6.36c.2-.8.77-1.21,1.71-1.21h4.07v7.62h6.46v5.33h-6.46v12.94c0,.6.15,1.1.44,1.5.29.39.72.59,1.27.59.28,0,.52-.03.72-.09.19-.06.36-.13.5-.2.14-.08.28-.14.4-.2s.27-.09.44-.09c.23,0,.42.05.57.16.14.11.29.28.44.52l2.36,3.69c-1.01.75-2.14,1.32-3.39,1.7s-2.55.57-3.9.57Z"/>
        <path class="cls-2" d="M380.85,193.96h-6.58c-.74,0-1.33-.17-1.78-.52-.45-.34-.8-.78-1.03-1.32l-2.16-6.38h-13.92l-2.16,6.38c-.18.47-.52.89-.99,1.27-.48.38-1.07.57-1.77.57h-6.64l14.18-36.62h8.7l14.17,36.62ZM367.36,179.96l-3.39-10.03c-.25-.64-.52-1.39-.8-2.25-.28-.86-.57-1.8-.85-2.8-.25,1.02-.52,1.97-.8,2.84-.29.87-.55,1.63-.81,2.26l-3.37,9.98h10.03Z"/>
        <path class="cls-2" d="M388.52,170.71c.5-.47,1.02-.9,1.56-1.31.54-.4,1.11-.74,1.72-1.02s1.27-.49,1.99-.65c.71-.16,1.49-.24,2.32-.24,1.42,0,2.68.25,3.78.74s2.02,1.18,2.78,2.06,1.32,1.93,1.71,3.14c.38,1.21.58,2.53.58,3.96v16.56h-7.79v-16.56c0-1.27-.29-2.27-.88-2.98-.59-.71-1.45-1.07-2.59-1.07-.85,0-1.66.18-2.4.54s-1.47.85-2.17,1.47v18.6h-7.79v-26.06h4.83c.97,0,1.61.44,1.91,1.31l.45,1.51Z"/>
        <path class="cls-2" d="M407.9,171.51c1.57-1.39,3.32-2.42,5.24-3.1,1.92-.68,3.97-1.02,6.17-1.02,1.57,0,3,.26,4.26.77,1.26.51,2.34,1.22,3.22,2.14.88.91,1.55,2,2.02,3.26s.7,2.63.7,4.12v16.29h-3.57c-.74,0-1.29-.1-1.67-.3-.38-.2-.69-.62-.94-1.26l-.55-1.43c-.65.55-1.28,1.04-1.89,1.46-.6.42-1.23.78-1.87,1.07s-1.33.51-2.06.65c-.73.14-1.54.21-2.42.21-1.19,0-2.27-.16-3.24-.46s-1.8-.77-2.48-1.37c-.68-.6-1.2-1.35-1.57-2.25-.37-.9-.55-1.93-.55-3.1,0-.94.23-1.89.7-2.85s1.28-1.84,2.44-2.64c1.16-.8,2.71-1.46,4.68-2,1.96-.54,4.43-.84,7.41-.9v-1.11c0-1.52-.31-2.63-.94-3.3-.63-.68-1.52-1.02-2.68-1.02-.92,0-1.67.1-2.26.3-.59.2-1.11.43-1.57.68-.46.25-.91.48-1.35.68-.44.2-.96.3-1.56.3-.54,0-.99-.13-1.36-.4-.37-.27-.67-.59-.9-.95l-1.41-2.44ZM421.92,183.35c-1.56.07-2.84.2-3.85.4-1.01.2-1.8.45-2.39.75-.59.3-.99.65-1.22,1.03-.23.39-.34.8-.34,1.26,0,.89.24,1.51.73,1.87.49.36,1.2.54,2.14.54,1.01,0,1.89-.18,2.64-.53s1.52-.92,2.29-1.71v-3.62Z"/>
        <path class="cls-2" d="M440.77,156.33v37.62h-7.79v-37.62h7.79Z"/>
        <path class="cls-2" d="M469.3,167.9l-13.92,32.82c-.23.52-.52.9-.85,1.14-.34.24-.87.36-1.61.36h-5.83l5.03-10.56-10.4-23.78h6.89c.6,0,1.07.13,1.39.4.33.27.57.59.72.95l4.27,11.24c.4,1.02.73,2.07.98,3.14.18-.54.37-1.07.55-1.61.18-.54.38-1.06.58-1.58l3.87-11.18c.15-.38.42-.71.8-.97.38-.26.8-.39,1.26-.39h6.28Z"/>
        <path class="cls-2" d="M498.25,193.96h-7.79v-20.69h-10.91v12.94c0,.6.15,1.1.44,1.5.29.39.72.59,1.27.59.28,0,.52-.03.72-.09.19-.06.36-.13.5-.2.14-.08.28-.14.4-.2s.27-.09.44-.09c.23,0,.42.05.57.16.14.11.29.28.44.52l2.36,3.69c-1.01.75-2.14,1.32-3.39,1.7s-2.55.57-3.9.57c-1.24,0-2.33-.18-3.28-.54-.95-.36-1.74-.87-2.39-1.53-.65-.66-1.14-1.46-1.47-2.4s-.5-1.99-.5-3.14v-13.47h-2.21c-.4,0-.75-.13-1.03-.39-.29-.26-.43-.64-.43-1.14v-3.04l4.15-.83,1.53-6.33c.2-.8.77-1.21,1.71-1.21h4.07v7.62h18.7v26.01ZM499.33,160.73c0,.62-.13,1.21-.38,1.76-.25.55-.59,1.03-1.03,1.45s-.94.73-1.52.97c-.58.23-1.19.35-1.85.35s-1.23-.12-1.78-.35c-.55-.23-1.04-.56-1.47-.97s-.76-.89-1.01-1.45c-.24-.55-.36-1.14-.36-1.76s.12-1.21.36-1.77c.24-.56.58-1.05,1.01-1.46.43-.41.92-.74,1.47-.98.55-.24,1.15-.36,1.78-.36s1.27.12,1.85.36c.58.24,1.08.57,1.52.98.44.41.78.9,1.03,1.46.25.56.38,1.15.38,1.77Z"/>
        <path class="cls-2" d="M521.35,174.08c-.23.29-.46.51-.68.68-.22.17-.53.25-.93.25s-.73-.09-1.04-.28c-.31-.18-.66-.39-1.04-.62-.39-.23-.84-.43-1.36-.62-.52-.18-1.16-.28-1.94-.28-.96,0-1.78.18-2.48.53-.7.35-1.27.85-1.72,1.51s-.79,1.45-1.01,2.4c-.22.95-.33,2.02-.33,3.2,0,2.5.48,4.42,1.45,5.76s2.29,2.01,3.98,2.01c.9,0,1.62-.11,2.15-.34.53-.23.98-.48,1.34-.75.37-.28.71-.53,1.02-.77s.7-.35,1.17-.35c.62,0,1.09.23,1.41.68l2.26,2.79c-.8.92-1.65,1.67-2.54,2.25-.89.58-1.8,1.03-2.73,1.36-.93.33-1.86.55-2.8.68s-1.85.19-2.74.19c-1.59,0-3.11-.3-4.56-.9-1.45-.6-2.72-1.48-3.82-2.63-1.1-1.15-1.97-2.56-2.61-4.24-.65-1.67-.97-3.59-.97-5.73,0-1.88.28-3.63.84-5.27s1.39-3.05,2.49-4.25c1.1-1.2,2.45-2.14,4.07-2.83,1.62-.69,3.49-1.03,5.62-1.03s3.84.33,5.38.98c1.54.65,2.93,1.61,4.17,2.87l-2.06,2.74Z"/>
        <path class="cls-2" d="M541.71,173.6c-.2.32-.41.54-.64.68-.23.13-.51.2-.87.2s-.74-.08-1.11-.24c-.37-.16-.77-.33-1.19-.52-.43-.18-.91-.36-1.45-.52-.54-.16-1.15-.24-1.83-.24-.99,0-1.75.19-2.27.57-.53.38-.79.9-.79,1.57,0,.49.17.89.52,1.21.34.32.8.6,1.37.84.57.24,1.21.47,1.94.69.72.22,1.46.46,2.21.73s1.49.58,2.21.94c.72.36,1.36.8,1.94,1.33.57.53,1.03,1.17,1.37,1.92s.52,1.66.52,2.71c0,1.29-.23,2.48-.7,3.57-.47,1.09-1.17,2.03-2.1,2.81-.93.79-2.08,1.4-3.44,1.83s-2.94.65-4.71.65c-.89,0-1.78-.08-2.66-.25-.89-.17-1.75-.39-2.58-.68-.83-.28-1.6-.62-2.3-1.02-.7-.39-1.31-.82-1.81-1.27l1.81-2.87c.2-.34.46-.6.77-.79.31-.19.71-.29,1.19-.29.45,0,.86.1,1.22.3.36.2.75.42,1.17.65s.91.45,1.47.65c.56.2,1.27.3,2.12.3.6,0,1.11-.06,1.53-.19.42-.13.75-.3,1.01-.51.25-.22.44-.46.55-.73.12-.27.18-.54.18-.83,0-.52-.18-.95-.53-1.28-.35-.33-.81-.62-1.38-.87s-1.22-.47-1.95-.68c-.73-.21-1.47-.45-2.22-.72-.75-.27-1.5-.59-2.22-.97-.73-.38-1.38-.85-1.95-1.43-.57-.58-1.03-1.29-1.38-2.12-.35-.84-.53-1.85-.53-3.04,0-1.11.21-2.16.64-3.15.43-1,1.07-1.87,1.92-2.63.85-.75,1.93-1.35,3.22-1.8,1.29-.44,2.8-.67,4.52-.67.94,0,1.85.08,2.73.25.88.17,1.7.4,2.48.7.77.3,1.47.66,2.11,1.07.64.41,1.2.86,1.68,1.34l-1.76,2.74Z"/>
      </g>
      <g>
        <g>
          <polygon class="cls-1" points="34.15 159.31 93.58 216.5 93.97 254.27 118.68 234.67 118.49 216.25 176.7 157.77 34.15 159.31"/>
          <path class="cls-1" d="M183.77,128.38l-57.25.62c-2.52,9.39-11.05,16.38-21.24,16.49-10.19.11-18.87-6.69-21.59-16.03l-57.25.62.17,15.83c.02,2.22,1.84,3.99,4.06,3.97l149.3-1.61c2.22-.02,4-1.84,3.97-4.06l-.17-15.83Z"/>
        </g>
        <g>
          <path class="cls-2" d="M46.88,7.85h88.57v29h29.2v49.42h7.85V29.07L145.01,0H39.03v86.27h7.85V7.85ZM161.64,29h-18.33V9.62l18.33,19.39Z"/>
          <rect class="cls-2" x="63.24" y="29.15" width="59.14" height="7.62"/>
          <rect class="cls-2" x="63.24" y="50.67" width="84.29" height="7.62"/>
          <rect class="cls-2" x="63.24" y="72.19" width="84.29" height="7.62"/>
          <path class="cls-2" d="M13.08,92.89c-7.22,0-13.08,5.86-13.08,13.08s5.86,13.08,13.08,13.08c6.11,0,11.22-4.19,12.66-9.85h43.4v9.34h7.85v-17.19H25.3c-1.87-4.94-6.63-8.46-12.22-8.46Z"/>
          <path class="cls-2" d="M195.27,92.89c-5.59,0-10.35,3.52-12.22,8.46h-41.09v7.85h40.65c1.44,5.66,6.55,9.85,12.66,9.85,7.22,0,13.08-5.86,13.08-13.08s-5.86-13.08-13.08-13.08Z"/>
          <circle class="cls-2" cx="105.77" cy="123.25" r="13.08"/>
        </g>
      </g>
      <path class="cls-4" d="M262.35,238.43h-2.34c-.27,0-.49-.06-.66-.2-.17-.14-.29-.3-.38-.51l-2.09-5.39h-10.02l-2.09,5.39c-.06.19-.18.35-.36.5-.18.14-.4.22-.66.22h-2.34l8.93-22.33h3.06l8.93,22.33h0ZM256.06,230.14l-3.5-9.08c-.1-.27-.21-.58-.32-.94-.12-.36-.22-.74-.32-1.15-.22.84-.44,1.54-.67,2.1l-3.5,9.07h8.33-.01Z"/>
      <path class="cls-4" d="M292.66,227.07c0,1.64-.29,3.15-.85,4.54s-1.36,2.59-2.39,3.6-2.27,1.8-3.72,2.37-3.06.85-4.82.85h-8.82v-22.7h8.82c1.76,0,3.37.29,4.82.86s2.69,1.36,3.72,2.37c1.03,1.01,1.82,2.21,2.39,3.59.56,1.39.85,2.89.85,4.53h0ZM287.27,227.07c0-1.12-.14-2.13-.43-3.04s-.71-1.67-1.25-2.3c-.54-.63-1.21-1.11-2-1.45-.79-.34-1.69-.51-2.7-.51h-3.52v14.6h3.52c1.01,0,1.91-.17,2.7-.51s1.46-.82,2-1.45.97-1.39,1.25-2.3c.29-.9.43-1.92.43-3.06h0Z"/>
      <path class="cls-4" d="M315.86,238.43h-4.08c-.45,0-.82-.1-1.11-.32s-.49-.49-.64-.82l-1.34-3.96h-8.63l-1.34,3.96c-.12.29-.32.55-.62.78-.3.23-.66.35-1.1.35h-4.11l8.79-22.7h5.39l8.79,22.7h0ZM307.49,229.75l-2.1-6.21c-.16-.4-.32-.86-.5-1.39-.18-.54-.35-1.12-.53-1.74-.16.64-.32,1.22-.5,1.76s-.34,1.01-.5,1.4l-2.09,6.19h6.22Z"/>
      <path class="cls-4" d="M335.94,238.43h-4.77c-.88,0-1.52-.33-1.9-1l-3.77-6.59c-.18-.28-.38-.49-.59-.62-.22-.13-.53-.19-.93-.19h-1.34v8.4h-5.27v-22.7h7.39c1.64,0,3.04.17,4.2.51,1.16.34,2.1.81,2.83,1.41s1.26,1.32,1.6,2.13c.33.82.5,1.71.5,2.68,0,.74-.1,1.43-.3,2.09-.19.66-.49,1.26-.88,1.82-.38.56-.86,1.05-1.43,1.49-.56.43-1.22.79-1.95,1.08.34.18.66.4.97.66.3.27.57.58.81.94l4.83,7.9h0ZM324.76,226.4c.71,0,1.33-.09,1.83-.27.51-.18.91-.43,1.24-.76s.56-.7.7-1.13.22-.9.22-1.39c0-1-.32-1.78-.97-2.34s-1.65-.84-3.02-.84h-2.12v6.73h2.12Z"/>
      <path class="cls-4" d="M342.87,219.78v5.3h7.13v3.9h-7.13v5.4h9.31v4.05h-14.61v-22.7h14.61v4.05h-9.31Z"/>
      <path class="cls-4" d="M371.54,234.27c.71,0,1.34-.12,1.89-.35.56-.23,1.02-.57,1.41-1.01.38-.43.67-.97.88-1.6s.3-1.34.3-2.14v-13.45h5.27v13.45c0,1.39-.23,2.67-.67,3.83s-1.1,2.17-1.94,3.01-1.86,1.5-3.07,1.97c-1.21.47-2.56.7-4.07.7s-2.88-.23-4.08-.7c-1.21-.47-2.23-1.12-3.07-1.97-.84-.84-1.49-1.84-1.93-3.01-.45-1.16-.67-2.44-.67-3.83v-13.45h5.27v13.43c0,.8.1,1.51.3,2.14s.49,1.16.88,1.6c.38.44.86.78,1.41,1.01.56.23,1.19.35,1.89.35h-.01Z"/>
      <path class="cls-4" d="M390.4,224.92h.84c.78,0,1.34-.25,1.68-.73l5.11-7.41c.3-.4.62-.67.97-.82s.78-.23,1.3-.23h4.58l-6.73,9.18c-.48.64-.99,1.09-1.54,1.37.4.14.75.35,1.08.61.32.26.62.6.9,1.01l6.86,10.53h-4.7c-.3,0-.56-.02-.77-.06-.21-.04-.4-.1-.55-.19-.16-.08-.29-.18-.4-.3-.12-.12-.22-.26-.32-.42l-5.14-7.9c-.19-.29-.42-.49-.71-.62-.29-.12-.67-.18-1.16-.18h-1.28v9.66h-5.27v-22.7h5.27v9.19h0Z"/>
      <path class="cls-4" d="M421.81,216.1c1.41,0,2.64.16,3.68.49,1.04.32,1.91.79,2.59,1.39s1.2,1.33,1.54,2.18.51,1.8.51,2.85-.18,1.99-.54,2.85c-.36.86-.9,1.6-1.6,2.22-.7.62-1.57,1.11-2.6,1.46s-2.22.52-3.57.52h-3.59v8.35h-3.01v-22.33h6.59ZM421.81,227.68c.86,0,1.62-.12,2.28-.34s1.21-.54,1.67-.96c.45-.41.79-.9,1.02-1.47s.34-1.2.34-1.89c0-1.42-.44-2.54-1.32-3.33s-2.21-1.2-4-1.2h-3.59v9.19h3.59Z"/>
      <path class="cls-4" d="M450.15,238.43h-2.68c-.55,0-.95-.21-1.21-.64l-5.8-7.98c-.18-.25-.36-.43-.57-.54-.2-.11-.52-.16-.94-.16h-2.29v9.32h-3.01v-22.33h6.31c1.41,0,2.63.14,3.66.43s1.87.7,2.55,1.24c.67.54,1.17,1.19,1.49,1.95.32.77.48,1.62.48,2.56,0,.79-.12,1.52-.38,2.21-.25.69-.61,1.3-1.08,1.85-.47.54-1.05,1.01-1.73,1.39-.68.38-1.45.67-2.32.87.38.22.71.54,1,.95l6.51,8.87h0ZM439.84,226.91c.88,0,1.64-.1,2.32-.32.67-.21,1.23-.51,1.68-.9s.79-.86,1.02-1.39c.23-.54.34-1.14.34-1.79,0-1.33-.43-2.34-1.31-3.01s-2.18-1.01-3.92-1.01h-3.3v8.43h3.18,0Z"/>
      <path class="cls-4" d="M473.52,227.27c0,1.67-.27,3.2-.8,4.61-.53,1.39-1.28,2.6-2.24,3.61-.97,1.01-2.13,1.79-3.48,2.35s-2.85.84-4.49.84-3.14-.28-4.49-.84c-1.35-.56-2.51-1.34-3.48-2.35-.97-1.01-1.71-2.21-2.24-3.61-.53-1.39-.8-2.93-.8-4.61s.27-3.2.8-4.61c.53-1.39,1.28-2.6,2.24-3.61.97-1.01,2.12-1.8,3.48-2.36,1.35-.56,2.85-.84,4.49-.84s3.14.28,4.49.84c1.36.56,2.52,1.35,3.48,2.36s1.71,2.22,2.24,3.61c.53,1.39.8,2.93.8,4.61ZM470.42,227.27c0-1.37-.19-2.6-.56-3.69s-.9-2.01-1.59-2.76c-.69-.75-1.52-1.33-2.49-1.74-.98-.4-2.07-.61-3.27-.61s-2.28.2-3.26.61c-.98.4-1.81.99-2.5,1.74-.69.75-1.23,1.67-1.6,2.76s-.56,2.32-.56,3.69.19,2.6.56,3.68c.38,1.08.91,2,1.6,2.76s1.52,1.33,2.5,1.73c.98.4,2.06.6,3.26.6s2.3-.2,3.27-.6c.98-.4,1.81-.97,2.49-1.73.69-.75,1.21-1.67,1.59-2.76s.56-2.32.56-3.68Z"/>
      <path class="cls-4" d="M485.25,230.72c0,1.25-.16,2.36-.46,3.35-.3.99-.76,1.82-1.36,2.5-.6.68-1.33,1.2-2.21,1.56-.88.36-1.87.54-3.01.54-1.03,0-2.08-.14-3.15-.43.02-.3.05-.6.08-.9s.06-.59.08-.88c.02-.18.08-.32.19-.43s.28-.16.51-.16c.19,0,.43.05.74.14.3.09.72.14,1.24.14.69,0,1.3-.1,1.84-.31.54-.21.99-.53,1.36-.97s.64-.99.84-1.67.29-1.49.29-2.43v-14.68h3.02v14.61h0Z"/>
      <path class="cls-4" d="M504.21,235.97v2.46h-13.77v-22.33h13.76v2.46h-10.73v7.41h8.69v2.37h-8.69v7.62h10.75Z"/>
      <path class="cls-4" d="M523.83,233.82c.17,0,.31.06.43.2l1.2,1.29c-.91,1.06-2.02,1.89-3.33,2.48s-2.88.89-4.73.89c-1.6,0-3.06-.28-4.37-.84-1.31-.56-2.43-1.34-3.35-2.34-.93-1.01-1.64-2.21-2.15-3.61-.51-1.4-.77-2.94-.77-4.62s.27-3.22.8-4.62,1.28-2.61,2.24-3.61c.96-1.01,2.11-1.79,3.45-2.35s2.82-.84,4.44-.84,2.99.25,4.21.77c1.21.51,2.28,1.2,3.21,2.07l-1,1.39c-.06.1-.14.19-.24.26-.1.06-.23.1-.4.1-.19,0-.42-.1-.69-.3s-.62-.43-1.06-.67c-.43-.25-.98-.47-1.63-.67s-1.46-.3-2.41-.3c-1.15,0-2.21.2-3.17.6-.95.4-1.78.98-2.47,1.74s-1.23,1.68-1.62,2.78c-.38,1.09-.58,2.32-.58,3.69s.2,2.63.6,3.72c.4,1.09.95,2.01,1.63,2.76.69.75,1.5,1.33,2.45,1.72.94.4,1.95.59,3.05.59.66,0,1.26-.04,1.8-.12s1.03-.2,1.48-.36c.45-.17.88-.38,1.26-.63.39-.25.78-.56,1.16-.91.18-.16.35-.23.53-.23h0Z"/>
      <path class="cls-4" d="M543.79,218.64h-7.23v19.79h-3.01v-19.79h-7.25v-2.54h17.48v2.54h0Z"/>
    </g>
  </g>
</svg>